<svg xmlns="http://www.w3.org/2000/svg" class="visual-hidden">
    <symbol id="twitter" viewBox="0 0 24 20" fill="none">
    <title>Twitter Icon</title>
    <path d="M20.4942 3.53429C21.4466 2.93853 22.1591 2.00045 22.4989 0.895189C21.604 1.4508 20.6249 1.84219 19.604 2.05244C18.1885 0.48557 15.9458 0.104266 14.1291 1.12159C12.3123 2.13891 11.3713 4.303 11.8318 6.40461C8.16633 6.21204 4.75125 4.40018 2.43643 1.4199C1.22837 3.60034 1.84571 6.3877 3.84723 7.78975C3.12346 7.7654 2.41574 7.56035 1.78308 7.19168C1.78308 7.21169 1.78308 7.2317 1.78308 7.25171C1.7835 9.52301 3.31326 11.4795 5.44075 11.9296C4.76942 12.1207 4.06523 12.1489 3.38192 12.0119C3.98024 13.9543 5.69099 15.2849 7.64088 15.3246C6.02593 16.651 4.03152 17.3703 1.97856 17.3668C1.61467 17.3673 1.25107 17.3454 0.889648 17.3012C2.97439 18.703 5.40078 19.4471 7.87885 19.4445C11.3264 19.4693 14.6397 18.047 17.0774 15.4959C19.5152 12.9447 20.8741 9.47754 20.8501 5.8699C20.8501 5.66313 20.8455 5.45747 20.8363 5.25293C21.7292 4.5777 22.4998 3.74122 23.1119 2.7828C22.2801 3.16862 21.3977 3.42192 20.4942 3.53429Z" fill="white"/>
    </symbol>

    <symbol id="facebook" viewBox="0 0 24 24" fill="none">
    <title>Facebook Icon</title>
    <path d="M0.890625 12.0676C0.891918 17.5673 4.86663 22.25 10.2651 23.1119V15.2985H7.44618V12.0676H10.2684V9.60813C10.1422 8.44271 10.5379 7.28122 11.348 6.43867C12.1581 5.59611 13.2988 5.15982 14.4606 5.24812C15.2946 5.26167 16.1264 5.3364 16.9495 5.47171V8.22076H15.5451C15.0616 8.15704 14.5755 8.31771 14.2237 8.6575C13.8719 8.9973 13.6926 9.47944 13.7362 9.96811V12.0676H16.8151L16.3228 15.2996H13.7362V23.1119C19.5745 22.1835 23.6685 16.8187 23.0523 10.9039C22.4361 4.98917 17.3254 0.59513 11.4227 0.905081C5.51992 1.21503 0.891563 6.12047 0.890625 12.0676Z" fill="white"/>
    </symbol>

    <symbol id="telegram" viewBox="0 0 28 25" fill="none">
    <title>Telegram Icon</title>    
    <path d="M26.8301 0.662938C26.3752 0.281337 25.6608 0.226736 24.922 0.520137H24.9208C24.1439 0.828538 2.92852 9.83096 2.06486 10.1988C1.90778 10.2528 0.535872 10.7592 0.677187 11.8872C0.803339 12.9042 1.90596 13.3254 2.0406 13.374L7.43421 15.201C7.79204 16.3794 9.11118 20.727 9.40291 21.6558C9.58486 22.2348 9.88144 22.9956 10.4012 23.1522C10.8573 23.3262 11.311 23.1672 11.6045 22.9392L14.9021 19.9134L20.2253 24.0204L20.3521 24.0954C20.7135 24.2538 21.0599 24.333 21.3904 24.333C21.6457 24.333 21.8908 24.2856 22.1249 24.1908C22.9224 23.8668 23.2414 23.115 23.2748 23.0298L27.251 2.58354C27.4936 1.49154 27.1564 0.935938 26.8301 0.662938ZM12.191 15.9318L10.3715 20.7318L8.55199 14.7318L22.5015 4.53175L12.191 15.9318Z" fill="white"/>
    </symbol>

    <symbol  id="youtube" viewBox="0 0 28 20" fill="none">
    <title> Youtube Icon</title>    
    <path d="M26.5893 3.39506C26.3428 2.03752 25.1682 1.0489 23.8052 0.740258C21.7654 0.308642 17.9904 0 13.9061 0C9.82414 0 5.98873 0.308642 3.94655 0.740258C2.58591 1.0489 1.40894 1.97483 1.16243 3.39506C0.913503 4.93827 0.666992 7.09877 0.666992 9.87654C0.666992 12.6543 0.913503 14.8148 1.22285 16.358C1.47178 17.7156 2.64633 18.7042 4.00697 19.0128C6.1724 19.4444 9.88456 19.7531 13.9689 19.7531C18.0533 19.7531 21.7654 19.4444 23.9308 19.0128C25.2915 18.7042 26.466 17.7783 26.715 16.358C26.9615 14.8148 27.2708 12.5916 27.3337 9.87654C27.208 7.09877 26.8986 4.93827 26.5893 3.39506ZM10.5661 14.1975V5.55556L18.1137 9.87654L10.5661 14.1975Z" fill="white"/>
    </symbol>

    <symbol id="tik-tok" viewBox="0 0 28 28" fill="none">
    <title>Tik-Tok Icon</title>    
    <path d="M24.1591 0.666992H3.8416C2.09112 0.666992 0.666992 2.09112 0.666992 3.8416V24.1591C0.666992 25.9095 2.09112 27.3337 3.8416 27.3337H24.1591C25.9095 27.3337 27.3337 25.9095 27.3337 24.1591V3.8416C27.3337 2.09112 25.9095 0.666992 24.1591 0.666992ZM21.6232 12.3006C21.4791 12.314 21.333 12.3229 21.1851 12.3229C19.5197 12.3229 18.0562 11.4664 17.2048 10.1718C17.2048 13.5679 17.2048 17.4321 17.2048 17.4968C17.2048 20.4867 14.7806 22.9108 11.7908 22.9108C8.80096 22.9108 6.37683 20.4867 6.37683 17.4968C6.37683 14.507 8.80096 12.0829 11.7908 12.0829C11.9038 12.0829 12.0143 12.093 12.1254 12.1V14.7679C12.0143 14.7546 11.9051 14.7343 11.7908 14.7343C10.2645 14.7343 9.02763 15.9711 9.02763 17.4975C9.02763 19.0238 10.2645 20.2606 11.7908 20.2606C13.3172 20.2606 14.6651 19.0581 14.6651 17.5318C14.6651 17.4714 14.6918 5.09112 14.6918 5.09112H17.2416C17.4816 7.37112 19.3222 9.17048 21.6232 9.33556V12.3006Z" fill="white"/>
    </symbol>

    <symbol id="discord" viewBox="0 0 28 20" fill="none">
    <title>Discord Icon</title>    
    <path d="M23.638 2.18582C21.3305 0.328938 17.6801 0.0141738 17.5239 0.00285089C17.2816 -0.0175294 17.0506 0.11834 16.951 0.342525C16.9419 0.356112 16.8626 0.539536 16.7743 0.824862C18.3006 1.08301 20.1756 1.60158 21.8717 2.65457C22.1434 2.82214 22.2272 3.17993 22.0597 3.45167C21.9487 3.63057 21.7607 3.72794 21.566 3.72794C21.4618 3.72794 21.3554 3.6985 21.2603 3.63963C18.3436 1.8303 14.7023 1.73972 14.0003 1.73972C13.2983 1.73972 9.65476 1.8303 6.74036 3.63963C6.46862 3.80946 6.11083 3.72568 5.94326 3.45394C5.77342 3.17993 5.85721 2.82441 6.12895 2.65457C7.82505 1.60385 9.70005 1.08301 11.2263 0.827127C11.138 0.539536 11.0588 0.358377 11.052 0.342525C10.9501 0.11834 10.7213 -0.0220581 10.4768 0.00285089C10.3205 0.0141738 6.67016 0.328938 4.33094 2.21073C3.11038 3.34071 0.666992 9.94398 0.666992 15.6528C0.666992 15.7547 0.694166 15.852 0.743985 15.9404C2.42877 18.9023 7.02795 19.6768 8.07641 19.7107C8.08094 19.7107 8.08774 19.7107 8.09453 19.7107C8.28022 19.7107 8.45458 19.6224 8.56328 19.473L9.62306 18.0146C6.76301 17.2764 5.30241 16.0219 5.21862 15.9471C4.97859 15.7365 4.95594 15.3697 5.1688 15.1297C5.3794 14.8896 5.74625 14.867 5.98629 15.0776C6.02025 15.1093 8.71047 17.3919 14.0003 17.3919C19.2992 17.3919 21.9895 15.1002 22.0166 15.0776C22.2567 14.8692 22.6213 14.8896 22.8341 15.1319C23.0447 15.372 23.0221 15.7365 22.782 15.9471C22.6982 16.0219 21.2376 17.2764 18.3776 18.0146L19.4374 19.473C19.5461 19.6224 19.7204 19.7107 19.9061 19.7107C19.9129 19.7107 19.9197 19.7107 19.9242 19.7107C20.9727 19.6768 25.5719 18.9023 27.2567 15.9404C27.3065 15.852 27.3337 15.7547 27.3337 15.6528C27.3337 9.94398 24.8903 3.34071 23.638 2.18582ZM10.2322 13.3339C9.11129 13.3339 8.20322 12.2968 8.20322 11.0151C8.20322 9.73338 9.11129 8.69624 10.2322 8.69624C11.3531 8.69624 12.2612 9.73338 12.2612 11.0151C12.2612 12.2968 11.3531 13.3339 10.2322 13.3339ZM17.7684 13.3339C16.6475 13.3339 15.7395 12.2968 15.7395 11.0151C15.7395 9.73338 16.6475 8.69624 17.7684 8.69624C18.8894 8.69624 19.7974 9.73338 19.7974 11.0151C19.7974 12.2968 18.8894 13.3339 17.7684 13.3339Z" fill="white"/>
    </symbol>

    <symbol id="instagram" viewBox="0 0 20 20" fill="none">
    <title>Instagram Icon</title>    
    <path fill-rule="evenodd" clip-rule="evenodd" d="M5.87727 0.06C6.94364 0.0109091 7.28364 0 10 0C12.7164 0 13.0564 0.0118182 14.1218 0.06C15.1873 0.108182 15.9145 0.278182 16.5509 0.524545C17.2173 0.776364 17.8218 1.17 18.3218 1.67909C18.8309 2.17818 19.2236 2.78182 19.4745 3.44909C19.7218 4.08545 19.8909 4.81273 19.94 5.87636C19.9891 6.94455 20 7.28454 20 10C20 12.7164 19.9882 13.0564 19.94 14.1227C19.8918 15.1864 19.7218 15.9136 19.4745 16.55C19.2236 17.2174 18.8303 17.822 18.3218 18.3218C17.8218 18.8309 17.2173 19.2236 16.5509 19.4745C15.9145 19.7218 15.1873 19.8909 14.1236 19.94C13.0564 19.9891 12.7164 20 10 20C7.28364 20 6.94364 19.9882 5.87727 19.94C4.81364 19.8918 4.08636 19.7218 3.45 19.4745C2.78265 19.2236 2.17802 18.8302 1.67818 18.3218C1.16944 17.8224 0.775741 17.2181 0.524545 16.5509C0.278182 15.9145 0.109091 15.1873 0.06 14.1236C0.0109091 13.0555 0 12.7155 0 10C0 7.28364 0.0118182 6.94364 0.06 5.87818C0.108182 4.81273 0.278182 4.08545 0.524545 3.44909C0.776112 2.78189 1.17011 2.17756 1.67909 1.67818C2.17822 1.16955 2.78225 0.775858 3.44909 0.524545C4.08545 0.278182 4.81273 0.109091 5.87636 0.06H5.87727ZM14.0409 1.86C12.9864 1.81182 12.67 1.80182 10 1.80182C7.33 1.80182 7.01364 1.81182 5.95909 1.86C4.98364 1.90455 4.45455 2.06727 4.10182 2.20455C3.63545 2.38636 3.30182 2.60182 2.95182 2.95182C2.62004 3.27459 2.36471 3.66753 2.20455 4.10182C2.06727 4.45455 1.90455 4.98364 1.86 5.95909C1.81182 7.01364 1.80182 7.33 1.80182 10C1.80182 12.67 1.81182 12.9864 1.86 14.0409C1.90455 15.0164 2.06727 15.5455 2.20455 15.8982C2.36455 16.3318 2.62 16.7255 2.95182 17.0482C3.27455 17.38 3.66818 17.6355 4.10182 17.7955C4.45455 17.9327 4.98364 18.0955 5.95909 18.14C7.01364 18.1882 7.32909 18.1982 10 18.1982C12.6709 18.1982 12.9864 18.1882 14.0409 18.14C15.0164 18.0955 15.5455 17.9327 15.8982 17.7955C16.3645 17.6136 16.6982 17.3982 17.0482 17.0482C17.38 16.7255 17.6355 16.3318 17.7955 15.8982C17.9327 15.5455 18.0955 15.0164 18.14 14.0409C18.1882 12.9864 18.1982 12.67 18.1982 10C18.1982 7.33 18.1882 7.01364 18.14 5.95909C18.0955 4.98364 17.9327 4.45455 17.7955 4.10182C17.6136 3.63545 17.3982 3.30182 17.0482 2.95182C16.7254 2.62006 16.3325 2.36474 15.8982 2.20455C15.5455 2.06727 15.0164 1.90455 14.0409 1.86ZM8.72273 13.0827C9.43605 13.3797 10.2303 13.4197 10.9699 13.1961C11.7095 12.9725 12.3485 12.499 12.7778 11.8566C13.2071 11.2142 13.4 10.4426 13.3237 9.67373C13.2473 8.90485 12.9064 8.18634 12.3591 7.64091C12.0102 7.29225 11.5884 7.02528 11.1239 6.85922C10.6595 6.69316 10.164 6.63215 9.67318 6.68056C9.18233 6.72897 8.70832 6.88562 8.28528 7.13921C7.86223 7.3928 7.50068 7.73704 7.22664 8.14714C6.9526 8.55723 6.7729 9.02299 6.70047 9.51087C6.62804 9.99876 6.66468 10.4966 6.80776 10.9687C6.95084 11.4407 7.1968 11.8751 7.52793 12.2407C7.85905 12.6062 8.26711 12.8938 8.72273 13.0827ZM6.36545 6.36545C6.84275 5.88816 7.40938 5.50955 8.033 5.25124C8.65661 4.99293 9.325 4.85998 10 4.85998C10.675 4.85998 11.3434 4.99293 11.967 5.25124C12.5906 5.50955 13.1572 5.88816 13.6345 6.36545C14.1118 6.84275 14.4905 7.40938 14.7488 8.033C15.0071 8.65661 15.14 9.325 15.14 10C15.14 10.675 15.0071 11.3434 14.7488 11.967C14.4905 12.5906 14.1118 13.1572 13.6345 13.6345C12.6706 14.5985 11.3632 15.14 10 15.14C8.63678 15.14 7.3294 14.5985 6.36545 13.6345C5.40151 12.6706 4.85998 11.3632 4.85998 10C4.85998 8.63678 5.40151 7.3294 6.36545 6.36545ZM16.28 5.62545C16.3983 5.51388 16.493 5.37971 16.5585 5.23089C16.624 5.08206 16.6589 4.92161 16.6613 4.75903C16.6637 4.59645 16.6334 4.43504 16.5723 4.28437C16.5111 4.1337 16.4204 3.99683 16.3054 3.88185C16.1904 3.76688 16.0536 3.67614 15.9029 3.61502C15.7522 3.55389 15.5908 3.52361 15.4282 3.52598C15.2657 3.52835 15.1052 3.56332 14.9564 3.62881C14.8076 3.69431 14.6734 3.789 14.5618 3.90727C14.3448 4.1373 14.226 4.44284 14.2306 4.75903C14.2352 5.07522 14.3629 5.37716 14.5865 5.60077C14.8101 5.82437 15.1121 5.95203 15.4282 5.95663C15.7444 5.96124 16.05 5.84244 16.28 5.62545Z" fill="#C2C3C5"/>
    </symbol>

    <symbol id="linkedin" viewBox="0 0 20 20" fill="none">
    <title>Linkedin Icon</title>
    <path d="M18.5195 0H1.47656C0.660156 0 0 0.644531 0 1.44141V18.5547C0 19.3516 0.660156 20 1.47656 20H18.5195C19.3359 20 20 19.3516 20 18.5586V1.44141C20 0.644531 19.3359 0 18.5195 0ZM5.93359 17.043H2.96484V7.49609H5.93359V17.043ZM4.44922 6.19531C3.49609 6.19531 2.72656 5.42578 2.72656 4.47656C2.72656 3.52734 3.49609 2.75781 4.44922 2.75781C5.39844 2.75781 6.16797 3.52734 6.16797 4.47656C6.16797 5.42188 5.39844 6.19531 4.44922 6.19531ZM17.043 17.043H14.0781V12.4023C14.0781 11.2969 14.0586 9.87109 12.5352 9.87109C10.9922 9.87109 10.7578 11.0781 10.7578 12.3242V17.043H7.79688V7.49609H10.6406V8.80078H10.6797C11.0742 8.05078 12.043 7.25781 13.4844 7.25781C16.4883 7.25781 17.043 9.23438 17.043 11.8047V17.043Z" fill="#C2C3C5"/>
    </symbol>

    <symbol id="loupe" viewBox="0 0 18 18" fill="none">
        <mask id="mask0_2174_1633" style="mask-type:luminance" maskUnits="userSpaceOnUse" x="0" y="0" width="18" height="17">
        <path fill-rule="evenodd" clip-rule="evenodd" d="M0.666504 0.666748H16.6857V16.3323H0.666504V0.666748Z" fill="white" stroke="white"/>
        </mask>
        <g mask="url(#mask0_2174_1633)">
        <path fill-rule="evenodd" clip-rule="evenodd" d="M8.67662 1.87321C4.94011 1.87321 1.90023 4.84514 1.90023 8.49912C1.90023 12.1531 4.94011 15.1258 8.67662 15.1258C12.4123 15.1258 15.4522 12.1531 15.4522 8.49912C15.4522 4.84514 12.4123 1.87321 8.67662 1.87321ZM8.6766 16.3323C4.2599 16.3323 0.666504 12.8183 0.666504 8.49912C0.666504 4.17997 4.2599 0.666748 8.6766 0.666748C13.0933 0.666748 16.6859 4.17997 16.6859 8.49912C16.6859 12.8183 13.0933 16.3323 8.6766 16.3323Z" fill="#A9A9C2"/>
        <path d="M8.67662 1.37321C4.67463 1.37321 1.40023 4.55845 1.40023 8.49912H2.40023C2.40023 5.13183 5.20558 2.37321 8.67662 2.37321V1.37321ZM1.40023 8.49912C1.40023 12.4397 4.67455 15.6258 8.67662 15.6258V14.6258C5.20566 14.6258 2.40023 11.8665 2.40023 8.49912H1.40023ZM8.67662 15.6258C12.6779 15.6258 15.9522 12.4397 15.9522 8.49912H14.9522C14.9522 11.8665 12.1467 14.6258 8.67662 14.6258V15.6258ZM15.9522 8.49912C15.9522 4.55849 12.6778 1.37321 8.67662 1.37321V2.37321C12.1468 2.37321 14.9522 5.13179 14.9522 8.49912H15.9522ZM8.6766 15.8323C4.52546 15.8323 1.1665 12.5316 1.1665 8.49912H0.166504C0.166504 13.1049 3.99435 16.8323 8.6766 16.8323V15.8323ZM1.1665 8.49912C1.1665 4.46665 4.52539 1.16675 8.6766 1.16675V0.166748C3.99442 0.166748 0.166504 3.8933 0.166504 8.49912H1.1665ZM8.6766 1.16675C12.8277 1.16675 16.1859 4.46658 16.1859 8.49912H17.1859C17.1859 3.89336 13.3589 0.166748 8.6766 0.166748V1.16675ZM16.1859 8.49912C16.1859 12.5317 12.8277 15.8323 8.6766 15.8323V16.8323C13.3589 16.8323 17.1859 13.1048 17.1859 8.49912H16.1859Z" fill="#A9A9C2"/>
        </g>
        <mask id="mask1_2174_1633" style="mask-type:luminance" maskUnits="userSpaceOnUse" x="12" y="12" width="6" height="6">
        <path fill-rule="evenodd" clip-rule="evenodd" d="M13.2012 13.3H17.3333V17.3335H13.2012V13.3Z" fill="white" stroke="white"/>
        </mask>
        <g mask="url(#mask1_2174_1633)">
        <path fill-rule="evenodd" clip-rule="evenodd" d="M16.7166 17.3335C16.5596 17.3335 16.4016 17.2747 16.2807 17.1573L13.3823 14.331C13.1413 14.0953 13.1405 13.7133 13.3815 13.4776C13.6217 13.2403 14.0123 13.2419 14.2541 13.476L17.1526 16.3031C17.3935 16.5388 17.3944 16.92 17.1534 17.1557C17.0333 17.2747 16.8746 17.3335 16.7166 17.3335Z" fill="#A9A9C2"/>
        <path d="M16.7166 17.3335C16.5595 17.3335 16.4016 17.2747 16.2807 17.1573L13.3823 14.331C13.1413 14.0953 13.1405 13.7133 13.3815 13.4776C13.6217 13.2403 14.0123 13.2419 14.2541 13.476L17.1526 16.3031C17.3935 16.5388 17.3944 16.92 17.1534 17.1557C17.0333 17.2747 16.8746 17.3335 16.7166 17.3335" stroke="#A9A9C2"/>
        </g>
    </symbol>

    <symbol id="arrow-left" viewBox="0 0 48 48" fill="none">
        <path d="M30 37L16 24.0001L30 11" stroke="white" stroke-width="4" stroke-miterlimit="10" stroke-linecap="square" stroke-linejoin="round"/>
    </symbol>

    <symbol id="bag" viewBox="0 0 20 20" fill="none">
        <path fill-rule="evenodd" clip-rule="evenodd" d="M14.6509 4.47H14.8665C17.7002 4.47 20 6.72 20 9.48V15C20 17.76 17.7002 20 14.8665 20H5.13347C2.29979 20 0 17.76 0 15V9.48C0 6.72 2.29979 4.47 5.13347 4.47H5.34908C5.36961 3.27 5.85216 2.15 6.72485 1.31C7.6078 0.46 8.73717 0.03 10.0103 0C12.5565 0 14.6201 2 14.6509 4.47ZM7.80289 2.38C7.22794 2.94 6.90967 3.68 6.88913 4.47H13.1109C13.0801 2.83 11.7043 1.5 10.0103 1.5C9.21973 1.5 8.39837 1.81 7.80289 2.38ZM13.9014 8.32C14.3326 8.32 14.6714 7.98 14.6714 7.57V6.41C14.6714 6 14.3326 5.66 13.9014 5.66C13.4805 5.66 13.1314 6 13.1314 6.41V7.57C13.1314 7.98 13.4805 8.32 13.9014 8.32ZM6.77615 7.57C6.77615 7.98 6.43735 8.32 6.00613 8.32C5.58519 8.32 5.23611 7.98 5.23611 7.57V6.41C5.23611 6 5.58519 5.66 6.00613 5.66C6.43735 5.66 6.77615 6 6.77615 6.41V7.57Z" fill="#141B22"/>
    </symbol>

    <symbol id="pointer" viewBox="0 0 42 56" fill="none">
        <path d="M21 0C9.422 0 0 9.48733 0 21.1517C0 37.7253 19.026 54.838 19.8357 55.5567C20.1693 55.853 20.5847 56 21 56C21.4153 56 21.8307 55.853 22.1643 55.559C22.974 54.838 42 37.7253 42 21.1517C42 9.48733 32.578 0 21 0ZM21 32.6667C14.567 32.6667 9.33333 27.433 9.33333 21C9.33333 14.567 14.567 9.33333 21 9.33333C27.433 9.33333 32.6667 14.567 32.6667 21C32.6667 27.433 27.433 32.6667 21 32.6667Z" fill="#21E786"/>
    </symbol>

    <symbol id="email" viewBox="0 0 56 56" fill="none">
        <path d="M0.109375 24.5366V53.5568L18.7651 39.0467L0.109375 24.5366Z" fill="#21E786"/>
        <path d="M48.7812 16.9871V25.9094L54.2908 21.6242L48.7812 16.9871Z" fill="#21E786"/>
        <path d="M29.057 0.385301C28.4465 -0.128434 27.5547 -0.128434 26.9441 0.385301L22.5938 4.04685H33.4073L29.057 0.385301Z" fill="#21E786"/>
        <path d="M7.21878 16.9871L1.70923 21.6242L7.21878 25.9094V16.9871Z" fill="#21E786"/>
        <path d="M22 40.6875L2.3125 56H53.6868L33.9993 40.6875H22Z" fill="#21E786"/>
        <path d="M37.2344 39.0469L55.8902 53.557V24.5366L37.2344 39.0469Z" fill="#21E786"/>
        <path d="M27.5862 19.6177C26.2554 19.6177 24.8789 20.9116 24.8789 23.0768C24.8789 25.2781 26.2216 26.7568 27.4757 26.7568C28.7963 26.7568 29.8792 25.2117 29.9571 23.2689L29.9592 22.8565C29.9002 20.9398 28.9411 19.6177 27.5862 19.6177Z" fill="#21E786"/>
        <path d="M33.9997 37.4062L45.5 28.4615V8.96875C45.5 8.06269 44.7654 7.32812 43.8594 7.32812H12.1406C11.2346 7.32812 10.5 8.06269 10.5 8.96875V28.4616L22.0003 37.4062H33.9997ZM16.4345 26.2399C15.651 23.2611 16.045 20.1207 17.544 17.3974C19.0423 14.6751 21.484 12.6613 24.4193 11.7269C27.516 10.7408 30.8042 11.0313 33.6775 12.5448C36.5514 14.0583 38.6509 16.6041 39.5893 19.7133C39.5944 19.7302 39.5992 19.7472 39.6037 19.7643C40.2274 22.1005 40.0427 24.306 39.005 26.9151C38.3036 28.6787 36.5839 30.5632 33.861 30.5632C32.8731 30.5632 31.9258 30.1581 31.1936 29.4223C31.0204 29.2482 30.8643 29.0585 30.7245 28.8576C29.805 29.6055 28.6899 30.0382 27.4761 30.0382C25.8904 30.0382 24.3486 29.2684 23.2462 27.9262C22.1833 26.632 21.5981 24.9099 21.5981 23.0769C21.5981 21.2357 22.2208 19.532 23.3518 18.2797C24.467 17.0449 26.0106 16.3366 27.5866 16.3366C28.4534 16.3366 29.2771 16.5432 30.0172 16.9325C30.1607 16.172 30.8273 15.5974 31.6279 15.5974H31.6362C32.5422 15.6019 33.2732 16.3401 33.2687 17.2461L33.2235 26.3609C33.2221 26.6408 33.3328 26.9199 33.5196 27.1076C33.5842 27.1727 33.7146 27.2817 33.861 27.2817C35.1848 27.2817 35.7672 26.1772 35.9559 25.7024C36.7223 23.7755 36.8676 22.2584 36.4401 20.6357C35.754 18.3863 34.2308 16.5445 32.1486 15.4479C30.0591 14.3474 27.6673 14.1364 25.4146 14.8533C20.9741 16.2669 18.4235 20.9018 19.6079 25.4052C20.5914 29.1449 23.9718 31.8313 27.8285 31.938C28.7341 31.9631 29.4482 32.7177 29.4231 33.6234C29.3985 34.5137 28.6689 35.2186 27.784 35.2186C27.7686 35.2186 27.7533 35.2184 27.7377 35.218C25.1953 35.1477 22.6856 34.2445 20.6708 32.6748C18.5776 31.0442 17.1128 28.8191 16.4345 26.2399Z" fill="#21E786"/>
    </symbol>

    <symbol id="phone" viewBox="0 0 56 56" fill="none">
        <path d="M51.5066 36.7576C48.078 36.7576 44.7116 36.2214 41.5215 35.1671C39.9583 34.634 38.0367 35.1231 37.0826 36.1029L30.786 40.8562C23.4837 36.9583 18.9856 32.4616 15.1409 25.2141L19.7543 19.0816C20.9529 17.8846 21.3828 16.136 20.8677 14.4954C19.809 11.2885 19.2711 7.92371 19.2711 4.49371C19.2713 2.01585 17.2554 0 14.7777 0H4.49356C2.01585 0 0 2.01585 0 4.49356C0 32.8946 23.1055 56 51.5066 56C53.9843 56 56.0002 53.9841 56.0002 51.5064V41.251C56 38.7734 53.9841 36.7576 51.5066 36.7576Z" fill="#21E786"/>
    </symbol>


</svg>
