<svg width="24" height="24" viewBox="0 0 24 24" fill="none" xmlns="http://www.w3.org/2000/svg">
<path fill-rule="evenodd" clip-rule="evenodd" d="M16.6509 6.47H16.8665C19.7002 6.47 22 8.72 22 11.48V17C22 19.76 19.7002 22 16.8665 22H7.13347C4.29979 22 2 19.76 2 17V11.48C2 8.72 4.29979 6.47 7.13347 6.47H7.34908C7.36961 5.27 7.85216 4.15 8.72485 3.31C9.6078 2.46 10.7372 2.03 12.0103 2C14.5565 2 16.6201 4 16.6509 6.47ZM9.80289 4.38C9.22794 4.94 8.90967 5.68 8.88913 6.47H15.1109C15.0801 4.83 13.7043 3.5 12.0103 3.5C11.2197 3.5 10.3984 3.81 9.80289 4.38ZM15.9014 10.32C16.3326 10.32 16.6714 9.98 16.6714 9.57V8.41C16.6714 8 16.3326 7.66 15.9014 7.66C15.4805 7.66 15.1314 8 15.1314 8.41V9.57C15.1314 9.98 15.4805 10.32 15.9014 10.32ZM8.77615 9.57C8.77615 9.98 8.43735 10.32 8.00613 10.32C7.58519 10.32 7.23611 9.98 7.23611 9.57V8.41C7.23611 8 7.58519 7.66 8.00613 7.66C8.43735 7.66 8.77615 8 8.77615 8.41V9.57Z" fill="#141B22"/>
</svg>
