<svg width="9" height="16" viewBox="0 0 9 16" fill="none" xmlns="http://www.w3.org/2000/svg">
<path d="M2.33873 8.69831V15.142C2.33873 15.2466 2.42358 15.3315 2.52825 15.3315H5.18153C5.28619 15.3315 5.37105 15.2466 5.37105 15.142V8.69831C5.37105 8.59364 5.4559 8.50879 5.56056 8.50879H7.45576C7.56043 8.50879 7.64528 8.42393 7.64528 8.31927V6.04503C7.64528 5.94036 7.56043 5.85551 7.45576 5.85551H5.56056C5.4559 5.85551 5.37105 5.77079 5.37105 5.66612V3.96031C5.37105 3.20224 6.31864 2.8232 6.69768 2.8232H7.8348C7.93947 2.8232 8.02432 2.73835 8.02432 2.63368V0.359442C8.02432 0.254773 7.9395 0.169922 7.83483 0.169922H5.37105C3.55166 0.169922 2.33873 2.06512 2.33873 3.20224V5.66599C2.33873 5.77066 2.25388 5.85551 2.14921 5.85551H0.254015C0.149346 5.85551 0.0644956 5.94036 0.0644956 6.04503V8.31927C0.0644956 8.42393 0.149346 8.50879 0.254015 8.50879H2.14921C2.25388 8.50879 2.33873 8.59364 2.33873 8.69831Z" fill="#141B22"/>
</svg>
